<?xml version="1.0" encoding="iso-8859-1"?>
<!-- Uploaded to: SVG Repo, www.svgrepo.com, Generator: SVG Repo Mixer Tools -->
<svg version="1.1" id="Layer_1" xmlns="http://www.w3.org/2000/svg" xmlns:xlink="http://www.w3.org/1999/xlink" 
	 viewBox="0 0 512 512" xml:space="preserve">
<path d="M512,99.056v-25.44c0-15.816-12.944-28.752-28.752-28.752h-368.24H28.752C12.936,44.864,0,57.8,0,73.616v25.432h512V99.056z
	"/>
<g style="opacity:0.25;">
	<path style="fill:#FFFFFF;" d="M147.032,44.864h-32.024H28.752C12.936,44.864,0,57.8,0,73.616v25.432h115.888L147.032,44.864z"/>
</g>
<circle style="fill:#D80E47;" cx="40.528" cy="71.96" r="8.184"/>
<circle style="fill:#05C3D6;" cx="65.088" cy="71.96" r="8.184"/>
<g>
	<circle style="fill:#FFFFFF;" cx="89.648" cy="71.96" r="8.184"/>
	<path style="fill:#FFFFFF;" d="M428.256,86.336H170.872c-7.904,0-14.376-6.472-14.376-14.376l0,0
		c0-7.904,6.472-14.376,14.376-14.376h257.376c7.904,0,14.376,6.472,14.376,14.376l0,0C442.632,79.864,436.16,86.336,428.256,86.336
		z"/>
</g>
<path d="M180.576,65.4l1.968,7.56c0.432,1.672,0.832,3.2,1.112,4.752h0.096c0.336-1.512,0.832-3.112,1.32-4.72l2.432-7.592h2.28
	l2.304,7.456c0.552,1.784,0.984,3.344,1.32,4.856h0.096c0.24-1.512,0.648-3.08,1.144-4.832l2.12-7.488h2.68l-4.8,14.888h-2.464
	l-2.288-7.096c-0.52-1.656-0.952-3.144-1.32-4.888h-0.064c-0.368,1.784-0.832,3.328-1.352,4.92l-2.4,7.08h-2.464L177.8,65.408h2.776
	V65.4z"/>
<path d="M203.544,65.4l1.968,7.56c0.432,1.672,0.832,3.2,1.112,4.752h0.096c0.336-1.512,0.832-3.112,1.32-4.72l2.432-7.592h2.28
	l2.304,7.456c0.552,1.776,0.984,3.344,1.32,4.856h0.096c0.24-1.512,0.648-3.08,1.144-4.832l2.12-7.488h2.68l-4.8,14.888h-2.464
	l-2.288-7.096c-0.52-1.656-0.952-3.144-1.32-4.888h-0.064c-0.368,1.784-0.832,3.328-1.352,4.92l-2.4,7.08h-2.464l-4.496-14.888
	h2.776V65.4z"/>
<path d="M226.512,65.4l1.968,7.56c0.432,1.672,0.832,3.2,1.112,4.752h0.096c0.336-1.512,0.832-3.112,1.32-4.72l2.432-7.592h2.28
	l2.304,7.456c0.552,1.784,0.984,3.344,1.32,4.856h0.096c0.24-1.512,0.648-3.08,1.144-4.832l2.12-7.488h2.68l-4.8,14.888h-2.464
	l-2.288-7.096c-0.52-1.656-0.952-3.144-1.32-4.888h-0.064c-0.368,1.784-0.832,3.328-1.352,4.92l-2.4,7.08h-2.464l-4.496-14.888
	h2.776V65.4z"/>
<path d="M246.192,78.696c0-1.144,0.768-1.936,1.84-1.936s1.816,0.8,1.816,1.936c0,1.112-0.704,1.936-1.84,1.936
	C246.928,80.632,246.192,79.808,246.192,78.696z"/>
<g>
	<rect x="461.328" y="70.328" style="fill:#FFFFFF;" width="23" height="4"/>
	<polygon style="fill:#FFFFFF;" points="474.592,84.256 471.752,81.432 480.856,72.328 471.752,63.224 474.592,60.4 486.512,72.328 
			"/>
</g>
<polygon style="fill:#C9C9C9;" points="429.816,67.312 422.168,77.216 414.512,67.312 "/>
<rect y="99.056" style="fill:#05C3D6;" width="512" height="368.08"/>
<rect x="16" y="115.104" width="480" height="336"/>
<g style="opacity:0.75;">
	<path style="fill:#FFFFFF;" d="M492,119.104v328H20v-328L492,119.104 M496,115.104H16v336h480V115.104L496,115.104z"/>
</g>
<circle style="fill:#D80E47;" cx="256.04" cy="283.64" r="38.136"/>
<path style="fill:#FFFFFF;" d="M381.328,302.424v-37.56l-38.232-3.824c-2.184-8.048-5.536-15.6-9.808-22.528l24.648-30.128
	l-26.56-26.56l-31.336,25.64c-6.552-3.448-13.592-6.104-21.016-7.776l-4.128-41.256H256.12h-0.16h-18.784l-4.128,41.256
	c-7.416,1.672-14.456,4.328-21.016,7.776l-31.336-25.64l-26.56,26.56l24.648,30.128c-4.272,6.928-7.624,14.48-9.808,22.528
	l-38.232,3.824v37.56l38.288,3.832c2.2,8.016,5.504,15.584,9.776,22.496l-24.672,30.152l26.56,26.56l31.328-25.632
	c6.56,3.448,13.6,6.096,21.016,7.768l4.128,41.256h18.784h0.16h18.784l4.128-41.256c7.416-1.672,14.464-4.32,21.016-7.768
	l31.328,25.632l26.56-26.56l-24.672-30.152c4.272-6.912,7.576-14.48,9.776-22.496L381.328,302.424z M256.04,340.144
	c-31.208,0-56.504-25.296-56.504-56.504s25.296-56.504,56.504-56.504s56.504,25.296,56.504,56.504S287.248,340.144,256.04,340.144z"
	/>
</svg>